<svg xmlns="http://www.w3.org/2000/svg" viewBox="0 0 24 24" width="32px" height="32px">
  <path d="M 7 3 C 5.9069372 3 5 3.9069372 5 5 L 5 8.6386719 C 4.9546776 8.6175334 4.9452519 8.6243654 4.8984375 8.6015625 C 4.3912789 8.3545296 3.8198561 8 3 8 C 1.9358722 8 0.97148557 8.9266343 1 10.025391 L 1 13.976562 C 0.97331537 15.074444 1.9336899 16 3 16 C 3.8198561 16 4.3912789 15.645469 4.8984375 15.398438 C 4.9452519 15.375635 4.9546776 15.382467 5 15.361328 L 5 19 C 5 20.093063 5.9069372 21 7 21 L 20 21 C 21.093063 21 22 20.093063 22 19 L 22 13 L 21 13 C 20.166667 13 19.540826 13.348596 19.021484 13.601562 C 18.502143 13.854531 18.074144 14 18 14 L 18 10 C 18.07414 10 18.502143 10.145469 19.021484 10.398438 C 19.540826 10.651404 20.166667 11 21 11 L 22 11 L 22 5 C 22 3.9069372 21.093063 3 20 3 L 7 3 z M 7 5 L 20 5 L 20 8.6386719 C 19.954678 8.6175334 19.945252 8.6243654 19.898438 8.6015625 C 19.391279 8.3545296 18.819856 8 18 8 C 16.935872 8 15.971486 8.9266343 16 10.025391 L 16 13.976562 C 15.973315 15.074444 16.93369 16 18 16 C 18.819856 16 19.391279 15.645469 19.898438 15.398438 C 19.945248 15.375637 19.954678 15.382468 20 15.361328 L 20 19 L 7 19 L 7 13 L 6 13 C 5.1666667 13 4.5408258 13.348596 4.0214844 13.601562 C 3.502143 13.854531 3.0741439 14 3 14 L 3 10 C 3.074144 10 3.502143 10.145469 4.0214844 10.398438 C 4.5408258 10.651404 5.1666667 11 6 11 L 7 11 L 7 5 z" fill="#FFFFFF" />
</svg>